<svg xmlns="http://www.w3.org/2000/svg" width="27" height="27" viewBox="0 0 27 27">
    <g fill="none" fill-rule="evenodd">
        <g fill="#FFF">
            <path d="M1265.25 34.695c0-4.672 3.77-8.443 8.44-8.443s8.44 3.77 8.44 8.443c0 4.671-3.77 8.443-8.44 8.443s-8.44-3.772-8.44-8.443m24.42 14.41l-7.653-7.712c1.463-1.801 2.363-4.165 2.363-6.698 0-5.91-4.782-10.695-10.69-10.695-5.908 0-10.69 4.784-10.69 10.695 0 5.91 4.782 10.694 10.69 10.694 2.532 0 4.895-.9 6.696-2.364l7.651 7.655c.507.507 1.238.338 1.576 0 .506-.45.506-1.125.056-1.576" transform="translate(-1263 -24)"/>
        </g>
    </g>
</svg>
